<?xml version="1.0" encoding="UTF-8"?>
<svg id="Layer_1" xmlns="http://www.w3.org/2000/svg" version="1.1" viewBox="0 0 1713.4 346.2">
  <!-- Generator: Adobe Illustrator 29.0.1, SVG Export Plug-In . SVG Version: 2.1.0 Build 192)  -->
  <defs>
    <style>
      .st0 {
        fill: #003b71;
      }

      .st1 {
        fill: #ce0e2d;
      }
    </style>
  </defs>
  <g>
    <path class="st0" d="M1019,69.5l-26,19.9c-14.3-18.7-31.6-32.8-51.7-42.5-20.1-9.6-42.2-14.5-66.2-14.5s-50.6,6.3-73.1,18.9c-22.4,12.6-39.8,29.6-52.1,50.9-12.3,21.3-18.5,45.2-18.5,71.8,0,40.2,13.8,73.7,41.3,100.6,27.6,26.9,62.3,40.3,104.3,40.3s84.8-18.1,115.9-54.2l26,19.7c-16.4,20.9-36.9,37.1-61.5,48.5-24.6,11.4-52,17.1-82.4,17.1-57.7,0-103.2-19.2-136.5-57.6-27.9-32.4-41.9-71.6-41.9-117.4s16.9-88.9,50.8-121.8C781.3,16.5,823.7,0,874.7,0s58.6,6.1,83.4,18.3c24.8,12.2,45.1,29.2,61,51.2Z"/>
    <path class="st0" d="M1219,0C1268.9,0,1310.7,16.7,1344.3,50c33.6,33.3,50.5,74.3,50.5,123s-16.8,89.2-50.3,122.8c-33.6,33.6-74.5,50.4-122.8,50.4s-90.1-16.7-123.8-50.2c-33.6-33.5-50.5-74-50.5-121.5s7.7-61,23-88.1c15.3-27,36.2-48.2,62.7-63.5C1159.6,7.7,1188.2,0,1219,0ZM1220.4,32c-24.4,0-47.5,6.4-69.4,19.1-21.8,12.7-38.9,29.8-51.2,51.4-12.3,21.5-18.4,45.5-18.4,72,0,39.2,13.6,72.3,40.7,99.2,27.2,27,59.9,40.5,98.2,40.5s49.3-6.2,71-18.6c21.8-12.4,38.8-29.4,50.9-50.9,12.2-21.5,18.3-45.5,18.3-71.8s-6.1-49.8-18.3-71c-12.2-21.2-29.4-38.1-51.5-50.8-22.1-12.7-45.6-19.1-70.5-19.1Z"/>
    <path class="st0" d="M1454.4,337.9V8.3h7.2l219.4,252.7V8.3h32.5v329.6h-7.4l-217.6-249.6v249.6h-34.1Z"/>
  </g>
  <g>
    <path class="st1" d="M0,8.3h33.6v123.7L165.4,8.3h44.3L51.3,156.2l170.6,181.7h-43.9L33.6,184.4v153.5H0V8.3Z"/>
    <path class="st1" d="M606.5,8.3h32.9v329.6h-32.9V8.3Z"/>
    <polygon class="st1" points="413.5 8.3 405.5 8.3 249.7 337.9 286.5 337.9 317.4 272.7 409.4 78.3 531.7 337.9 567.3 337.9 413.5 8.3"/>
  </g>
</svg>